HIERARCHY
ROOT Hips
{
	OFFSET -0.001795 -0.223333 0.028219
	CHANNELS 6 Xposition Yposition Zposition Zrotation Yrotation Xrotation 
	JOINT LeftUpLeg
	{
		OFFSET 0.069520 -0.091406 -0.006815
		CHANNELS 3 Zrotation Yrotation Xrotation
		JOINT LeftLeg
		{
			OFFSET 0.034277 -0.375199 -0.004496
			CHANNELS 3 Zrotation Yrotation Xrotation
			JOINT LeftFoot
			{
				OFFSET -0.013596 -0.397961 -0.043693
				CHANNELS 3 Zrotation Yrotation Xrotation
				JOINT LeftToe
				{
					OFFSET 0.026358 -0.055791 0.119288
					CHANNELS 3 Zrotation Yrotation Xrotation
					End Site
					{
						OFFSET 0.000000 0.000000 0.000000
					}
				}
			}
		}
	}
	JOINT RightUpLeg
	{
		OFFSET -0.067670 -0.090522 -0.004320
		CHANNELS 3 Zrotation Yrotation Xrotation
		JOINT RightLeg
		{
			OFFSET -0.038290 -0.382569 -0.008850
			CHANNELS 3 Zrotation Yrotation Xrotation
			JOINT RightFoot
			{
				OFFSET 0.015774 -0.398415 -0.042312
				CHANNELS 3 Zrotation Yrotation Xrotation
				JOINT RightToe
				{
					OFFSET -0.025372 -0.048144 0.123348
					CHANNELS 3 Zrotation Yrotation Xrotation
					End Site
					{
						OFFSET 0.000000 0.000000 0.000000
					}
				}
			}
		}
	}
	JOINT Spine
	{
		OFFSET -0.002533 0.108963 -0.026696
		CHANNELS 3 Zrotation Yrotation Xrotation
		JOINT Spine1
		{
			OFFSET 0.005487 0.135180 0.001092
			CHANNELS 3 Zrotation Yrotation Xrotation
			JOINT Spine2
			{
				OFFSET 0.001457 0.052922 0.025425
				CHANNELS 3 Zrotation Yrotation Xrotation
				JOINT Neck
				{
					OFFSET -0.002778 0.213870 -0.042857
					CHANNELS 3 Zrotation Yrotation Xrotation
					JOINT Head
					{
						OFFSET 0.005152 0.064970 0.051349
						CHANNELS 3 Zrotation Yrotation Xrotation
						End Site
						{
							OFFSET 0.000000 0.000000 0.000000
						}
					}
				}
				JOINT LeftShoulder
				{
					OFFSET 0.078845 0.121749 -0.034090
					CHANNELS 3 Zrotation Yrotation Xrotation
					JOINT LeftArm
					{
						OFFSET 0.090977 0.030469 -0.008868
						CHANNELS 3 Zrotation Yrotation Xrotation
						JOINT LeftForeArm
						{
							OFFSET 0.259612 -0.012772 -0.027456
							CHANNELS 3 Zrotation Yrotation Xrotation
							JOINT LeftHand
							{
								OFFSET 0.249234 0.008986 -0.001171
								CHANNELS 3 Zrotation Yrotation Xrotation
								End Site
								{
									OFFSET 0.000000 0.000000 0.000000
								}
							}
						}
					}
				}
				JOINT RightShoulder
				{
					OFFSET -0.081759 0.118833 -0.038615
					CHANNELS 3 Zrotation Yrotation Xrotation
					JOINT RightArm
					{
						OFFSET -0.096012 0.032551 -0.009143
						CHANNELS 3 Zrotation Yrotation Xrotation
						JOINT RightForeArm
						{
							OFFSET -0.253742 -0.013329 -0.021401
							CHANNELS 3 Zrotation Yrotation Xrotation
							JOINT RightHand
							{
								OFFSET -0.255298 0.007772 -0.005559
								CHANNELS 3 Zrotation Yrotation Xrotation
								End Site
								{
									OFFSET 0.000000 0.000000 0.000000
								}
							}
						}
					}
				}
			}
		}
	}
}
MOTION
Frames: 15
Frame Time: 0.050000
0.000000 0.941404 0.000000 -0.581162 -3.225688 5.033885 7.162501 -0.185081 -2.446164 1.404029 -0.034200 -2.725726 3.063571 9.204237 11.909448 0.000000 0.000000 0.000000 -4.671079 0.404769 -3.590245 -4.455068 -0.008480 -5.814675 -26.752310 -35.522099 50.683810 0.000000 0.000000 0.000000 6.197598 0.186203 -3.376801 -3.419253 1.618585 -0.190456 -3.938332 4.779244 -1.526561 7.347703 -4.762469 -4.974291 0.000000 0.000000 0.000000 -22.793645 -4.163178 -1.319565 -49.317132 -3.006656 -3.745760 -8.747537 -15.622865 1.632758 0.000000 0.000000 0.000000 21.894886 -2.674840 -2.701004 55.870598 3.813201 -3.206201 9.631001 19.003710 2.132549 0.000000 0.000000 0.000000 
0.000236 0.940562 0.000059 -0.711818 -3.916909 5.650350 7.099252 -0.169727 -1.968579 1.629861 0.028754 -4.436034 3.385750 9.707553 12.243316 0.000000 0.000000 0.000000 -4.493829 0.471580 -4.520961 -4.639997 0.011827 -5.605205 -26.406770 -35.437410 50.103909 0.000000 0.000000 0.000000 7.137948 0.249249 -3.958377 -4.014730 1.893572 -0.369473 -4.866997 5.357764 -1.952152 8.446508 -5.517970 -5.068184 0.000000 0.000000 0.000000 -23.652798 -3.943303 -1.713868 -48.115841 -3.254784 -3.442242 -9.145827 -15.449626 1.655458 0.000000 0.000000 0.000000 21.911747 -3.752034 -3.219941 56.667785 3.300793 -3.443891 10.406194 18.744444 2.227503 0.000000 0.000000 0.000000 
0.000366 0.940467 -0.000091 -0.392289 -3.519322 5.418027 6.622748 -0.187123 -2.353623 1.906782 -0.037689 -3.540763 3.224296 9.443817 11.977719 0.000000 0.000000 0.000000 -4.688872 0.464846 -4.489587 -4.900606 0.068489 -5.092959 -26.726319 -35.605867 50.364450 0.000000 0.000000 0.000000 6.786874 0.222298 -3.722261 -3.562662 1.654965 -1.463735 -5.279000 4.940629 -1.538842 8.115452 -5.589293 -3.689026 0.000000 0.000000 0.000000 -23.261278 -4.355198 -1.366330 -48.504851 -2.730893 -3.741467 -8.457948 -14.690500 1.495347 0.000000 0.000000 0.000000 22.797635 -2.665398 -2.687000 55.667315 2.613648 -3.780878 10.499070 19.282863 2.311526 0.000000 0.000000 0.000000 
0.000413 0.940233 -0.000213 -0.350002 -3.333966 5.931613 6.901412 -0.207077 -2.702835 1.369562 0.029450 -4.011381 3.131337 9.322150 12.052012 0.000000 0.000000 0.000000 -4.705021 0.518487 -5.320140 -4.965137 0.116323 -4.547091 -26.946225 -35.741964 50.546865 0.000000 0.000000 0.000000 6.865438 0.243917 -4.037011 -3.846708 1.794352 -1.040948 -4.877465 4.159741 -2.643710 8.115290 -5.776222 -2.666578 0.000000 0.000000 0.000000 -23.741153 -3.746998 -1.593256 -48.559100 -3.157673 -3.517911 -8.076883 -14.110986 1.399134 0.000000 0.000000 0.000000 21.861688 -2.662475 -2.846941 55.950551 2.075046 -3.858800 11.490875 19.768424 2.499219 0.000000 0.000000 0.000000 
0.000375 0.940615 -0.000445 -0.118198 -2.888778 5.820399 6.471231 -0.226013 -3.004330 1.757510 -0.024748 -3.508599 2.909199 9.007899 12.028779 0.000000 0.000000 0.000000 -4.866928 0.502981 -5.153627 -5.078043 0.130921 -4.489939 -27.216464 -35.826644 50.960136 0.000000 0.000000 0.000000 6.545106 0.240404 -4.049627 -3.418465 1.597064 -1.042282 -5.211736 4.034852 -2.613506 7.845572 -5.543314 -2.802613 0.000000 0.000000 0.000000 -23.589980 -4.125843 -1.418490 -48.661951 -3.574167 -3.351979 -8.586587 -13.768045 1.421829 0.000000 0.000000 0.000000 21.991190 -2.942483 -2.963864 55.585414 1.883701 -3.937587 12.457959 20.299690 2.745555 0.000000 0.000000 0.000000 
0.000335 0.941001 -0.000659 -0.052620 -2.729888 6.115934 6.473782 -0.237380 -3.143550 1.658794 0.005180 -3.936512 2.790175 8.880748 12.280162 0.000000 0.000000 0.000000 -4.835669 0.517150 -5.366193 -5.247695 0.128282 -4.651567 -27.267166 -35.795704 51.231633 0.000000 0.000000 0.000000 6.382238 0.254315 -4.279916 -3.226495 1.504757 -1.180339 -5.222062 4.006657 -2.684865 8.167259 -5.776221 -2.829123 0.000000 0.000000 0.000000 -24.003224 -3.983289 -1.571871 -48.436920 -3.723696 -3.253018 -8.491520 -13.531345 1.385786 0.000000 0.000000 0.000000 21.681764 -2.955616 -2.930917 55.949623 1.859976 -3.955508 12.586555 20.316060 2.769887 0.000000 0.000000 0.000000 
0.000312 0.941271 -0.000886 0.030041 -2.532472 6.160974 6.316372 -0.250818 -3.379746 1.811951 -0.016765 -3.725531 2.689899 8.749901 12.317010 0.000000 0.000000 0.000000 -4.771974 0.510650 -5.276711 -5.500673 0.127591 -4.849911 -27.333415 -35.774592 51.478410 0.000000 0.000000 0.000000 6.268574 0.249891 -4.275451 -3.165414 1.476299 -1.209630 -5.236726 3.725881 -2.656757 8.084568 -5.598490 -3.374320 0.000000 0.000000 0.000000 -23.932922 -3.791926 -1.616261 -48.552978 -3.757151 -3.268550 -8.916036 -13.680148 1.452934 0.000000 0.000000 0.000000 21.650099 -2.842230 -2.908784 56.173479 1.705622 -4.034717 12.831397 20.778262 2.876989 0.000000 0.000000 0.000000 
0.000331 0.941525 -0.001111 0.054494 -2.296283 6.399965 6.297492 -0.271402 -3.762956 1.839259 -0.022531 -3.636536 2.577144 8.606742 12.378110 0.000000 0.000000 0.000000 -4.700438 0.522474 -5.465160 -5.659505 0.132779 -4.908677 -27.446595 -35.780467 51.778290 0.000000 0.000000 0.000000 6.171087 0.253959 -4.396375 -3.023316 1.411603 -1.108915 -5.377830 3.744513 -2.979503 8.339152 -5.841501 -3.058282 0.000000 0.000000 0.000000 -23.855911 -3.873026 -1.635705 -48.476222 -3.664922 -3.249568 -9.246289 -13.918479 1.511489 0.000000 0.000000 0.000000 21.552058 -3.008744 -2.952596 56.535944 1.643994 -4.055145 13.254373 20.916747 2.976934 0.000000 0.000000 0.000000 
0.000318 0.941780 -0.001317 0.085378 -2.285949 6.422703 6.331938 -0.274598 -3.851894 1.720037 -0.016998 -3.558063 2.559293 8.592459 12.442588 0.000000 0.000000 0.000000 -4.713798 0.522651 -5.466294 -5.690933 0.128926 -4.973808 -27.413090 -35.738924 51.839476 0.000000 0.000000 0.000000 6.167772 0.248155 -4.344055 -3.078231 1.432822 -1.393003 -5.252094 3.797054 -2.790658 8.335317 -5.830666 -3.124371 0.000000 0.000000 0.000000 -23.707149 -3.754603 -1.677988 -48.668393 -3.767884 -3.247516 -9.418080 -13.940934 1.534579 0.000000 0.000000 0.000000 21.641849 -2.998691 -2.946491 56.461907 1.837525 -3.982750 13.484589 21.012228 3.035398 0.000000 0.000000 0.000000 
0.000276 0.941980 -0.001482 0.096118 -2.402034 6.414554 6.315358 -0.275030 -3.908255 1.711383 -0.023633 -3.418793 2.611676 8.673470 12.492340 0.000000 0.000000 0.000000 -4.728649 0.524839 -5.487640 -5.688913 0.126733 -4.989224 -27.304829 -35.676872 51.775307 0.000000 0.000000 0.000000 6.224620 0.248234 -4.327478 -3.117751 1.449961 -1.439598 -5.328267 4.018270 -2.781037 8.637015 -6.039688 -3.197799 0.000000 0.000000 0.000000 -23.554929 -3.822210 -1.674021 -48.482900 -3.911439 -3.166482 -9.859911 -13.820776 1.569599 0.000000 0.000000 0.000000 21.769144 -2.986226 -2.901647 56.382870 2.050478 -3.892658 13.780775 21.075135 3.105805 0.000000 0.000000 0.000000 
0.000209 0.942168 -0.001610 0.107299 -2.586450 6.383540 6.328434 -0.267009 -3.772215 1.639937 -0.012246 -3.544107 2.678326 8.782206 12.606721 0.000000 0.000000 0.000000 -4.714395 0.532442 -5.590862 -5.743838 0.142147 -4.836987 -27.150207 -35.599229 51.646304 0.000000 0.000000 0.000000 6.300719 0.244731 -4.262549 -3.172948 1.475829 -1.384807 -5.366244 4.231547 -2.940563 8.817292 -6.183479 -3.130726 0.000000 0.000000 0.000000 -23.553639 -3.913336 -1.669520 -48.225244 -3.699821 -3.202076 -10.109024 -13.903519 1.605098 0.000000 0.000000 0.000000 21.874032 -3.012905 -2.895193 56.328458 2.411216 -3.715323 13.959938 20.896669 3.110880 0.000000 0.000000 0.000000 
0.000171 0.942206 -0.001738 0.129424 -2.629109 6.461776 6.362632 -0.270022 -3.857074 1.535167 -0.003789 -3.545901 2.696992 8.812422 12.640382 0.000000 0.000000 0.000000 -4.614532 0.545052 -5.773759 -5.969618 0.167925 -4.696242 -27.101050 -35.565348 51.654235 0.000000 0.000000 0.000000 6.442755 0.246191 -4.272500 -3.308991 1.538108 -1.355838 -5.397201 4.223464 -3.077709 8.816440 -6.171467 -3.157732 0.000000 0.000000 0.000000 -23.493611 -3.844954 -1.701495 -48.046470 -3.792565 -3.139525 -10.257022 -13.781717 1.607570 0.000000 0.000000 0.000000 21.664798 -3.014965 -2.886076 56.415563 2.679397 -3.574292 14.374035 20.880159 3.177536 0.000000 0.000000 0.000000 
0.000191 0.942152 -0.001909 0.088567 -2.742057 6.384906 6.406523 -0.261613 -3.718274 1.515797 0.000578 -3.611905 2.749542 8.883362 12.639367 0.000000 0.000000 0.000000 -4.415168 0.551432 -5.856611 -6.257545 0.206411 -4.462468 -26.986126 -35.504957 51.565881 0.000000 0.000000 0.000000 6.543777 0.241264 -4.185478 -3.254414 1.516802 -1.160253 -5.505409 4.505869 -3.430388 9.022303 -6.353785 -2.973251 0.000000 0.000000 0.000000 -23.483971 -3.934326 -1.746810 -47.654453 -3.661524 -3.104288 -10.682509 -13.836604 1.656965 0.000000 0.000000 0.000000 21.717509 -3.032305 -2.839094 56.265498 2.954817 -3.415297 14.636007 20.819878 3.220029 0.000000 0.000000 0.000000 
0.000262 0.942006 -0.002224 -0.003957 -2.973874 6.398331 6.469878 -0.254915 -3.647446 1.539881 0.001938 -3.693283 2.873875 9.055015 12.638709 0.000000 0.000000 0.000000 -4.280522 0.573017 -6.148604 -6.347983 0.244968 -4.092514 -26.832129 -35.453284 51.356494 0.000000 0.000000 0.000000 6.706237 0.234474 -4.081643 -3.367706 1.566176 -1.304489 -5.349355 4.689751 -3.369260 9.096390 -6.414970 -2.958834 0.000000 0.000000 0.000000 -23.608708 -4.054010 -1.700014 -47.400283 -3.614140 -3.098634 -10.830236 -13.723366 1.660272 0.000000 0.000000 0.000000 21.605277 -2.861231 -2.723052 56.056162 3.408099 -3.200731 14.946136 20.727063 3.259197 0.000000 0.000000 0.000000 
0.000368 0.941835 -0.002672 -0.003221 -3.038945 6.378644 6.453535 -0.256993 -3.736797 1.548732 -0.007302 -3.522237 2.924449 9.113913 12.561981 0.000000 0.000000 0.000000 -4.255729 0.589919 -6.401788 -6.413965 0.287956 -3.678516 -26.813722 -35.467342 51.270237 0.000000 0.000000 0.000000 6.728055 0.228082 -4.009373 -3.321283 1.546749 -1.212966 -5.426041 4.828074 -3.521622 9.234783 -6.515624 -2.946439 0.000000 0.000000 0.000000 -23.510073 -4.094212 -1.711048 -47.212895 -3.504728 -3.102302 -11.040688 -13.911531 1.704453 0.000000 0.000000 0.000000 21.607914 -2.694892 -2.595871 55.874237 3.867556 -2.971989 15.160718 20.636945 3.283446 0.000000 0.000000 0.000000 
